<?xml version="1.0" encoding="iso-8859-1"?>
<!-- Uploaded to: SVG Repo, www.svgrepo.com, Generator: SVG Repo Mixer Tools -->
<svg version="1.1" id="Layer_1" xmlns="http://www.w3.org/2000/svg" xmlns:xlink="http://www.w3.org/1999/xlink" 
	 viewBox="0 0 512.001 512.001" xml:space="preserve">
<path style="fill:#848075;" d="M88.823,266.089c0,30.099-5.506,59.802-16.108,87.682c-8.034,21.129,7.674,43.743,30.278,43.743H256
	l64.713-69.229L256,266.088H88.823V266.089z"/>
<path style="fill:#706B63;" d="M439.285,353.771c-10.602-27.881-16.108-57.583-16.108-87.682H256.001v131.426h153.006
	C431.61,397.516,447.319,374.9,439.285,353.771z"/>
<path style="fill:#E1B872;" d="M337.701,420.022L337.701,420.022c-4.886-5.728-10.384-10.905-16.403-15.428
	c-0.819-0.615-1.633-1.235-2.464-1.831c-17.694-12.704-39.39-20.189-62.834-20.189l-43.142,64.713L256,512
	c22.39,0,44.081-2.984,64.713-8.545c0.001,0.001,0.001,0.001,0.002,0.002c3.628-0.978,7.223-2.035,10.783-3.171
	c7.344-2.344,14.542-5.011,21.571-8.003v-1.853v-26.443v-2.258C353.07,446.44,347.621,431.654,337.701,420.022z"/>
<path style="fill:#F8E5B5;" d="M193.166,402.762c-0.633,0.455-1.255,0.924-1.879,1.392c-6.339,4.763-12.142,10.201-17.288,16.219
	c-0.059,0.07-0.119,0.139-0.179,0.209c-9.74,11.451-14.889,26.11-14.889,41.144v2.229v28.326c7.029,2.992,14.227,5.659,21.571,8.003
	c3.56,1.137,7.155,2.193,10.783,3.171c0.001-0.001,0.001-0.001,0.002-0.002c1.142,0.307,2.289,0.605,3.437,0.896
	c19.601,4.983,40.126,7.649,61.276,7.649V382.572C232.555,382.573,210.86,390.057,193.166,402.762z"/>
<polygon style="fill:#BD7155;" points="256,391.483 200.061,460.348 256,491.42 311.939,460.348 "/>
<path style="fill:#8D472E;" d="M283.6,446.213c-3.589-0.059-7.067,0.383-10.366,1.262c-5.654,1.506-11.445,2.258-17.234,2.258
	l-23.728,34.224L256,512c22.391,0,44.081-2.984,64.713-8.545v-2.24v-0.303v-15.875v-0.303
	C320.713,464.307,304.023,446.55,283.6,446.213z"/>
<path style="fill:#AB5034;" d="M238.765,447.475c-3.299-0.879-6.775-1.321-10.366-1.262c-11.335,0.187-21.518,5.739-28.339,14.134
	c-5.469,6.733-8.775,15.295-8.775,24.385v0.303v15.875v0.303v2.24c20.633,5.561,42.324,8.545,64.713,8.545v-62.266
	C250.21,449.734,244.42,448.981,238.765,447.475z"/>
<path style="fill:#ECCE93;" d="M423.176,215.397c-7.914,0-15.379,1.907-21.98,5.267c-17.438-65.964-72.314-125.138-138.209-129.08
	c-2.317-0.139-4.644-0.219-6.987-0.219c-1.005,0-2.007,0.016-3.008,0.041c-0.337,0.009-0.673,0.024-1.01,0.036
	c-0.659,0.023-1.317,0.047-1.974,0.082c-0.409,0.022-0.818,0.046-1.226,0.072c-0.581,0.036-1.162,0.075-1.742,0.12
	c-0.439,0.033-0.877,0.069-1.315,0.108c-0.545,0.049-1.089,0.101-1.633,0.157c-0.457,0.046-0.915,0.093-1.371,0.145
	c-0.51,0.058-1.018,0.124-1.526,0.189c-0.482,0.061-0.964,0.119-1.444,0.187c-0.404,0.056-0.807,0.122-1.21,0.182
	c-1.164,0.175-2.323,0.366-3.478,0.575c-0.27,0.049-0.541,0.094-0.811,0.145c-0.648,0.122-1.294,0.253-1.94,0.386
	c-0.286,0.058-0.572,0.115-0.856,0.176c-0.66,0.14-1.318,0.287-1.975,0.439c-0.252,0.058-0.506,0.116-0.758,0.177
	c-0.691,0.164-1.382,0.332-2.07,0.508c-0.18,0.045-0.359,0.094-0.539,0.14c-4.227,1.099-8.391,2.418-12.482,3.949h-0.001
	c-35.69,13.349-65.902,42.582-85.335,77.947c-0.006,0.002-0.013,0.004-0.019,0.006c-0.133,0.241-0.255,0.486-0.386,0.728
	c-0.759,1.397-1.508,2.8-2.234,4.214c-0.078,0.152-0.156,0.303-0.234,0.455c-0.819,1.607-1.616,3.225-2.39,4.854
	c-0.086,0.181-0.171,0.363-0.258,0.545c-0.775,1.644-1.53,3.296-2.26,4.959c-0.046,0.106-0.091,0.211-0.136,0.316
	c-0.752,1.724-1.482,3.457-2.183,5.2c-0.002,0.004-0.003,0.009-0.005,0.013c-0.677,1.686-1.326,3.381-1.954,5.083
	c-0.081,0.218-0.163,0.436-0.243,0.655c-0.593,1.622-1.162,3.252-1.71,4.888c-0.093,0.277-0.184,0.555-0.276,0.833
	c-0.538,1.632-1.057,3.27-1.55,4.913c-0.069,0.23-0.135,0.461-0.203,0.691c-0.508,1.718-0.998,3.441-1.454,5.168
	c-0.001,0.002-0.001,0.005-0.002,0.008l102.628,183.482c12.976,7.036,27.595,10.798,42.573,10.798
	c21.928,0,43.092-8.054,59.448-22.658c24.601-21.967,60.011-56.677,78.766-89.392c8.085,6.022,18.107,9.587,28.962,9.587
	c26.805,0,48.535-21.73,48.535-48.535C471.71,237.129,449.981,215.397,423.176,215.397z"/>
<path style="fill:#F8E5B5;" d="M337.43,302.513c0-18.243-16.302-32.181-34.319-29.312c-4.01,0.639-8.037,1.194-12.079,1.666
	c-1.555,0.181-3.136,0.274-4.699,0.274c-19.261,0-35.941-13.731-39.662-32.651l-7.318-37.207c-0.013-0.068-0.027-0.136-0.04-0.204
	c-1.768-8.888-12.604-12.531-19.429-6.568c-21.355,18.656-46.7,32.85-74.583,41.092c-6.685,1.976-14.004-0.182-18.315-5.66
	c-4.348-5.523-9.869-10.079-16.187-13.294c-0.001,0.003-0.002,0.008-0.003,0.011c-7.542-3.837-16.213-5.778-25.392-5.145
	c-24.581,1.695-44.204,22.013-45.084,46.638c-0.987,27.616,21.107,50.315,48.503,50.315c10.856,0,20.878-3.566,28.962-9.587
	c18.755,32.715,54.165,67.425,78.766,89.392c5.185,4.629,10.855,8.595,16.875,11.86c21.724-0.139,42.664-8.167,58.878-22.645
	c17.374-15.514,40.14-37.385,58.622-60.421C335.148,315.806,337.43,309.257,337.43,302.513L337.43,302.513z"/>
<circle style="fill:#E1B872;" cx="423.171" cy="263.933" r="16.178"/>
<circle style="fill:#ECCE93;" cx="88.819" cy="263.933" r="16.178"/>
<g>
	<path style="fill:#DFB296;" d="M178.344,293.592h-10.786c-4.468,0-8.089-3.622-8.089-8.089c0-4.467,3.621-8.089,8.089-8.089h10.786
		c4.468,0,8.089,3.622,8.089,8.089C186.433,289.971,182.812,293.592,178.344,293.592z"/>
	<path style="fill:#DFB296;" d="M344.441,293.592h-10.786c-4.468,0-8.089-3.622-8.089-8.089c0-4.467,3.621-8.089,8.089-8.089h10.786
		c4.468,0,8.089,3.622,8.089,8.089C352.53,289.971,348.91,293.592,344.441,293.592z"/>
</g>
<rect x="104.997" y="194.906" style="fill:#848075;" width="45.299" height="161.783"/>
<g>
	<rect x="361.694" y="194.906" style="fill:#706B63;" width="45.299" height="161.783"/>
	<path style="fill:#706B63;" d="M382.77,78.844c-21.96-14.756-48.335-25.732-77.477-31.625c-3.792-0.767-7.684-1.155-11.563-1.155
		c-14.364,0-27.598,5.161-37.73,13.578l-26.256,78.268c17.117,17.117,28.751,38.94,33.422,62.691l7.318,37.207
		c1.629,8.281,9.353,13.936,17.736,12.957c29.757-3.475,58.033-11.802,84.012-24.175c5.519-2.628,12.071,0.334,13.729,6.219
		l0.032,0.115c4.211-5.065,9.437-9.249,15.361-12.263c6.557-3.336,13.966-5.234,21.821-5.258v-0.183v-59.891
		C423.176,124.722,408.173,95.914,382.77,78.844z"/>
</g>
<path style="fill:#848075;" d="M382.301,78.529c-18.764-12.526-40.724-22.302-64.861-28.521c-0.111-0.028-0.234-0.058-0.369-0.09
	c-11.057-2.573-20.881,7.594-18.101,18.602l8.53,33.787c9.075,35.945,32.218,66.732,64.224,85.441l0,0
	c11.479,6.71,25.094,8.765,38.042,5.743l0.201-0.046l0,0c7.731-1.772,13.212-8.652,13.212-16.584v-21.533
	C423.176,124.522,407.922,95.634,382.301,78.529z"/>
<path style="fill:#5B5751;" d="M229.743,137.909c8.155,8.155,15.049,17.388,20.555,27.38
	c23.922-32.906,38.058-73.364,38.058-117.069v-1.914c-12.277,1.111-23.502,5.98-32.357,13.335L229.743,137.909z"/>
<path style="fill:#706B63;" d="M150.301,238.05v-43.145h-45.299v52.19C120.68,245.832,135.847,242.742,150.301,238.05z"/>
<path style="fill:#8D472E;" d="M255.636,59.277c-5.692,87.175-78.197,156.12-166.812,156.12l-39.539-39.538
	c-8.424-8.424-8.424-22.082,0-30.506l130.959-130.96c8.424-8.424,22.082-8.424,30.506,0L255.636,59.277z"/>
<path style="fill:#AB5034;" d="M186.948,183.215c27.987-39.3,23.213-93.147-10.903-127.263l-3.427-3.427
	c-8.424-8.424-22.081-8.425-30.506,0l-92.827,92.827c-8.425,8.425-8.424,22.082,0,30.506l39.539,39.538
	c36.429,0,70.131-11.659,97.593-31.44C186.594,183.71,186.771,183.463,186.948,183.215z"/>
<path style="fill:#ADA999;" d="M255.636,59.277l-31.992-31.992v20.936c0,25.118-6.912,48.65-18.924,68.805l-17.771,66.189
	c-0.167,0.234-0.334,0.468-0.502,0.701C225.763,155.579,252.285,110.598,255.636,59.277z"/>
<path style="fill:#C1BDAB;" d="M186.948,183.215c14.12-19.828,19.89-43.358,17.771-66.189
	c-23.537,39.496-66.674,66.014-115.895,66.014H56.468c1.617,1.617,3.414,3.414,5.329,5.329c1.158,1.158,2.356,2.356,3.571,3.571
	c1.216,1.216,2.452,2.452,3.688,3.688c1.236,1.236,2.471,2.471,3.688,3.688c1.825,1.825,3.606,3.606,5.277,5.277
	s3.236,3.236,4.626,4.626c0.695,0.695,1.33,1.329,1.93,1.93c0.4,0.4,0.775,0.775,1.127,1.127c0.527,0.527,1.017,1.017,1.423,1.423
	c0.54,0.54,0.965,0.965,1.254,1.254c0.145,0.145,0.256,0.256,0.331,0.331c0.074,0.074,0.113,0.113,0.113,0.113
	c0.011,0,0.02,0,0.031,0c1.265,0,2.525-0.017,3.784-0.046c0.411-0.01,0.82-0.025,1.231-0.037c0.865-0.026,1.729-0.056,2.59-0.095
	c0.47-0.022,0.94-0.045,1.41-0.07c0.814-0.043,1.626-0.093,2.438-0.148c0.466-0.031,0.933-0.063,1.398-0.098
	c0.879-0.067,1.755-0.143,2.63-0.224c0.377-0.035,0.757-0.065,1.134-0.102c1.22-0.121,2.435-0.253,3.648-0.4
	c0.348-0.042,0.695-0.092,1.043-0.136c0.879-0.112,1.757-0.228,2.633-0.354c0.496-0.071,0.99-0.148,1.485-0.224
	c0.727-0.111,1.454-0.225,2.178-0.346c0.528-0.088,1.057-0.178,1.584-0.271c0.695-0.123,1.388-0.251,2.081-0.382
	c0.527-0.1,1.055-0.197,1.58-0.303c0.744-0.149,1.486-0.306,2.227-0.465c0.581-0.124,1.164-0.247,1.743-0.378
	c0.986-0.221,1.968-0.451,2.948-0.689c0.576-0.14,1.149-0.29,1.722-0.437c0.589-0.15,1.177-0.301,1.763-0.457
	c0.617-0.165,1.232-0.335,1.845-0.507c0.534-0.15,1.067-0.301,1.6-0.456c0.634-0.184,1.268-0.371,1.9-0.562
	c0.493-0.15,0.983-0.304,1.473-0.458c0.661-0.207,1.323-0.413,1.98-0.629c0.325-0.107,0.646-0.219,0.971-0.327
	c1.496-0.5,2.983-1.021,4.461-1.563c0.288-0.106,0.578-0.208,0.866-0.315c0.74-0.276,1.474-0.561,2.209-0.847
	c0.351-0.136,0.701-0.272,1.051-0.411c0.734-0.291,1.466-0.589,2.195-0.89c0.324-0.134,0.647-0.27,0.971-0.406
	c0.76-0.32,1.52-0.643,2.274-0.974c0.202-0.088,0.401-0.18,0.603-0.27c2.703-1.198,5.369-2.465,7.994-3.8
	c0.091-0.046,0.182-0.091,0.273-0.137c0.824-0.421,1.644-0.851,2.459-1.286c0.182-0.097,0.365-0.194,0.546-0.291
	c0.812-0.436,1.62-0.878,2.425-1.327c0.133-0.074,0.265-0.15,0.398-0.224c3.595-2.02,7.108-4.168,10.532-6.44
	c0.035-0.023,0.069-0.045,0.104-0.068c0.825-0.549,1.646-1.106,2.46-1.669c0.094-0.065,0.188-0.129,0.282-0.194
	c0.822-0.569,1.638-1.145,2.449-1.73C186.594,183.71,186.771,183.463,186.948,183.215z"/>
<path d="M256,310.735c6.482,0,12.576-2.525,17.16-7.108c3.159-3.159,3.159-8.281-0.001-11.44c-3.158-3.159-8.28-3.158-11.439,0
	c-1.527,1.528-3.559,2.37-5.72,2.37c-2.16,0-4.192-0.841-5.72-2.37c-3.159-3.158-8.281-3.159-11.439,0
	c-3.16,3.159-3.16,8.281-0.001,11.44C243.424,308.21,249.519,310.735,256,310.735z"/>
<path d="M162.38,246.272c1.438,1.047,3.105,1.552,4.757,1.552c2.497,0,4.961-1.153,6.544-3.326
	c5.009-6.874,12.188-12.098,20.214-14.714c4.247-1.384,6.569-5.949,5.186-10.198c-1.384-4.247-5.947-6.569-10.197-5.186
	c-11.239,3.662-21.281,10.966-28.279,20.569C157.975,238.582,158.769,243.641,162.38,246.272z"/>
<path d="M177.804,263.932c0,4.467,3.621,8.089,8.089,8.089s8.089-3.622,8.089-8.089c0-4.461,3.628-8.089,8.089-8.089
	s8.089,3.628,8.089,8.089c0,4.467,3.621,8.089,8.089,8.089s8.089-3.622,8.089-8.089c0-13.382-10.887-24.268-24.268-24.268
	S177.804,250.55,177.804,263.932z"/>
<path d="M479.763,261.865c-0.497-13.911-6.152-27.142-15.923-37.251c-8.802-9.107-20.247-14.943-32.576-16.718v-52.569
	c0-33.589-16.443-64.691-43.983-83.198c-23.098-15.52-50.895-26.877-80.385-32.84c-9.486-1.918-19.454-1.718-28.854,0.53
	c-4.344,1.039-7.025,5.404-5.986,9.749s5.4,7.021,9.749,5.986c7.123-1.703,14.693-1.861,21.884-0.407
	c27.43,5.547,53.215,16.063,74.568,30.411c23.061,15.496,36.828,41.578,36.828,69.77v52.567c-3.153,0.454-6.26,1.18-9.309,2.168
	c-3.887,0.59-6.869,3.936-6.869,7.988v138.639c0,4.467,3.622,8.089,8.089,8.089s8.089-3.622,8.089-8.089v-36.717
	c2.667,0.382,5.366,0.586,8.089,0.586c15.509,0,29.981-6.148,40.752-17.31C474.694,292.088,480.318,277.392,479.763,261.865z
	 M452.286,292.012c-7.694,7.974-18.032,12.366-29.109,12.366c-2.738,0-5.442-0.278-8.089-0.815v-47.72h8.089
	c4.461,0,8.089,3.628,8.089,8.089c0,4.467,3.622,8.089,8.089,8.089s8.089-3.622,8.089-8.089c0-13.382-10.886-24.268-24.268-24.268
	h-8.089V224.31c3.572-0.729,7.237-0.981,10.95-0.725c20.333,1.401,36.831,18.469,37.56,38.857
	C463.992,273.542,459.975,284.043,452.286,292.012z"/>
<path d="M160.471,171.836c21.032-12.237,38.736-29.758,51.197-50.668c2.287-3.837,1.03-8.803-2.809-11.09
	c-3.84-2.289-8.803-1.031-11.09,2.809c-22.815,38.283-64.56,62.065-108.946,62.065c-4.467,0-8.089,3.622-8.089,8.089
	s3.622,8.089,8.089,8.089C114.003,191.13,138.778,184.458,160.471,171.836z"/>
<path d="M210.506,106.792c1.007,0.414,2.048,0.609,3.073,0.609c3.182,0,6.2-1.89,7.484-5.015
	c5.46-13.277,8.864-27.271,10.119-41.592c0.39-4.45-2.901-8.375-7.351-8.764c-4.458-0.392-8.375,2.9-8.764,7.351
	c-1.113,12.691-4.13,25.09-8.966,36.854C204.401,100.367,206.374,105.093,210.506,106.792z"/>
<path d="M440.388,331.438c-1.223-4.297-5.698-6.787-9.996-5.564c-4.297,1.224-6.787,5.699-5.564,9.996
	c1.992,6.993,4.312,13.985,6.895,20.778c2.857,7.514,1.871,15.629-2.705,22.266c-4.608,6.682-11.902,10.514-20.013,10.514h-78.424
	c8.179-7.58,15.882-15.091,23.054-22.48c0.285,4.21,3.78,7.538,8.061,7.538c4.467,0,8.089-3.622,8.089-8.089l0.002-135.07
	c0-2.714-1.361-5.247-3.624-6.745c-2.264-1.499-5.127-1.761-7.625-0.701c-22.718,9.64-46.693,15.983-71.259,18.851
	c-4.156,0.484-8.049-2.362-8.86-6.483l-7.318-37.207c-4.57-23.232-15.292-44.578-31.109-62.071
	c15.359-26.046,24.188-56.383,24.188-88.747V16.164c0-4.467-3.622-8.089-8.089-8.089c-4.467,0-8.089,3.622-8.089,8.089v24.041
	L216.47,8.674c-11.565-11.565-30.382-11.564-41.946,0L43.565,139.633c-11.564,11.564-11.564,30.382,0,41.946l25.779,25.779
	l-27.017,0.068c-4.467,0.015-8.077,3.649-8.062,8.116c0.015,4.459,3.634,8.062,8.089,8.062c0.009,0,0.018,0,0.027,0l46.535-0.118
	c2.681,0,5.345-0.07,7.997-0.19v16.368h-8.089c-13.382,0-24.267,10.886-24.267,24.267c0,4.467,3.622,8.089,8.089,8.089
	s8.089-3.622,8.089-8.089c0-4.461,3.628-8.089,8.089-8.089h8.089v47.725c-2.648,0.537-5.353,0.81-8.089,0.81
	c-11.078,0-21.416-4.392-29.11-12.367c-7.689-7.969-11.706-18.471-11.309-29.571c0.285-7.972,2.938-15.633,7.672-22.156
	c2.624-3.616,1.821-8.674-1.796-11.298c-3.617-2.626-8.675-1.82-11.298,1.796c-6.63,9.135-10.346,19.883-10.746,31.08
	c-0.557,15.527,5.067,30.224,15.834,41.383c7.441,7.713,16.652,13.028,26.748,15.58c-2.472,10.896-5.702,21.653-9.665,32.073
	c-4.706,12.375-3.02,26.282,4.509,37.2c7.56,10.962,20.02,17.507,33.331,17.507h74.021c-3.231,3.008-6.311,6.175-9.161,9.509
	l-0.195,0.229c-10.845,12.749-16.817,29.221-16.817,46.384v30.555c0,4.467,3.622,8.089,8.089,8.089s8.089-3.622,8.089-8.089v-30.555
	c0-13.326,4.603-26.076,12.945-35.884l0.181-0.212c3.823-4.472,8.082-8.638,12.658-12.387l9.255-6.529
	c2.433,1.618,4.94,3.132,7.512,4.527c0.008,0.004,0.015,0.007,0.023,0.011c4.714,2.555,9.636,4.701,14.693,6.44l-25.828,31.796
	c-1.349-2.59-4.052-4.361-7.173-4.361c-4.467,0-8.089,3.622-8.089,8.089v31.515v18.72v0.456c0,4.467,3.622,8.089,8.089,8.089
	s8.089-3.622,8.089-8.089v-0.456v-18.72c0-7.206,2.634-13.954,6.942-19.26c0.008-0.009,0.016-0.016,0.023-0.025l0.071-0.087
	c5.397-6.585,13.382-10.916,22.121-11.06c2.776-0.042,5.512,0.288,8.152,0.991c12.612,3.358,26.018,3.359,38.633,0
	c2.638-0.702,5.382-1.034,8.15-0.99c8.746,0.145,16.736,4.48,22.133,11.072l0.06,0.074c0.007,0.008,0.014,0.014,0.019,0.022
	c4.309,5.305,6.945,12.056,6.945,19.264v18.72v0.456c0,4.467,3.622,8.089,8.089,8.089s8.089-3.622,8.089-8.089v-0.456v-18.72V453.22
	c0-4.467-3.622-8.089-8.089-8.089c-3.121,0-5.825,1.771-7.173,4.361l-25.821-31.787c7.512-2.585,14.693-6.088,21.387-10.448
	l12.193,7.718c3.658,3.15,7.104,6.613,10.247,10.298c8.663,10.158,13.434,23.105,13.434,36.456v28.701
	c0,4.467,3.622,8.089,8.089,8.089s8.089-3.622,8.089-8.089v-28.701c0-17.195-6.145-33.87-17.303-46.955
	c-2.745-3.217-5.692-6.283-8.787-9.168h73.938c13.31,0,25.771-6.545,33.331-17.507c7.529-10.918,9.215-24.825,4.509-37.2
	C444.425,344.534,442.253,337.987,440.388,331.438z M55.005,151.072L185.965,20.113c5.257-5.257,13.81-5.257,19.067,0l42.329,42.329
	c-7.124,80.022-73.744,143.187-155.227,144.825L55.005,170.14C49.748,164.883,49.748,156.329,55.005,151.072z M82.981,378.913
	c-4.576-6.636-5.562-14.751-2.705-22.266c4.46-11.728,8.058-23.856,10.745-36.135c1.979-0.076,3.944-0.263,5.892-0.541v11.832
	c0,4.467,3.622,8.089,8.089,8.089s8.089-3.622,8.089-8.089V221.811c48.257-6.688,90.291-33.091,117.687-70.795
	c12.322,14.69,20.724,32.201,24.451,51.145l7.318,37.207c2.236,11.366,12.311,19.477,23.633,19.569
	c-0.339,1.612-0.52,3.283-0.52,4.995c0,4.467,3.621,8.089,8.089,8.089s8.089-3.622,8.089-8.089c0-4.461,3.628-8.089,8.089-8.089
	c4.461,0,8.089,3.628,8.089,8.089c0,4.467,3.621,8.089,8.089,8.089c4.468,0,8.089-3.622,8.089-8.089
	c0-4.842-1.431-9.353-3.884-13.144c7.871-2.164,15.646-4.674,23.3-7.533l-0.002,100.13c-0.114,0.112-0.231,0.219-0.34,0.339
	c-12.421,13.701-26.958,28.005-43.208,42.514c-14.88,13.286-34.078,20.603-54.06,20.603c-13.481,0-26.869-3.395-38.716-9.82
	c-0.005-0.002-0.01-0.004-0.015-0.008c-5.517-2.992-10.674-6.617-15.332-10.775c-16.443-14.682-31.061-29.102-43.549-42.914V230.74
	c0-4.467-3.622-8.089-8.089-8.089s-8.089,3.622-8.089,8.089v135.655c0,4.467,3.622,8.089,8.089,8.089
	c4.283,0,7.779-3.331,8.061-7.541c7.169,7.386,14.871,14.895,23.058,22.484h-78.426C94.884,389.426,87.59,385.594,82.981,378.913z
	 M283.469,438.13c-4.169-0.046-8.318,0.464-12.316,1.528c-9.898,2.636-20.411,2.635-30.304,0c-3.999-1.066-8.144-1.575-12.318-1.529
	l13.148-16.185c4.735,0.706,9.525,1.074,14.324,1.074c4.825,0,9.608-0.373,14.322-1.071L283.469,438.13z"/>
</svg>